<svg version="1.1" xmlns="http://www.w3.org/2000/svg" xmlns:xlink="http://www.w3.org/1999/xlink" x="0px" y="0px" viewBox="0 0 1000 1000" enable-background="new 0 0 1000 1000" xml:space="preserve">
<metadata> Svg Vector Icons : http://www.onlinewebfonts.com/icon </metadata>
<g><g><path d="M574.2,84.2C803.9,84.2,990,270.4,990,500S803.9,915.8,574.2,915.8v-89.1c87.3,0,169.3-34,231-95.7c61.7-61.7,95.7-143.7,95.7-231c0-87.3-34-169.3-95.7-231c-61.7-61.7-143.7-95.7-231-95.7c-87.3,0-169.3,34-231,95.7c-47.5,47.5-78.5,107-90.3,171.6h172.8L217.9,678.2L10,440.6h152.7C191.6,239.1,364.8,84.2,574.2,84.2z M752.4,440.6v118.8H514.8v-297h118.8v178.2H752.4z"/></g></g>
</svg>
