<svg xmlns="http://www.w3.org/2000/svg" width="22" height="22" viewBox="0 0 22 22">
    <g id="prefix__Group_1093" data-name="Group 1093" transform="translate(-35 -583)">
        <path id="prefix__Rectangle_435" fill="none" d="M0 0H22V22H0z" data-name="Rectangle 435" transform="translate(35 583)"/>
        <path id="prefix__bookmark" fill="#487ff1" d="M11.852 0H.687A.407.407 0 0 0 .27.4v14.808a.786.786 0 0 0 .453.7.874.874 0 0 0 .869-.061l4.678-3.175 4.678 3.175a.875.875 0 0 0 .869.061.787.787 0 0 0 .454-.7V.4a.407.407 0 0 0-.419-.4zm0 0" transform="translate(39.73 586)"/>
    </g>
</svg>
