<svg xmlns="http://www.w3.org/2000/svg" width="28" height="28" viewBox="0 0 28 28">
    <path data-name="Subtraction 28" d="M-10542-9452a13.914 13.914 0 0 1-9.9-4.1 13.915 13.915 0 0 1-4.1-9.9 13.915 13.915 0 0 1 4.1-9.9 13.915 13.915 0 0 1 9.9-4.1 13.915 13.915 0 0 1 9.9 4.1 13.916 13.916 0 0 1 4.1 9.9 13.915 13.915 0 0 1-4.1 9.9 13.914 13.914 0 0 1-9.9 4.1zm-6.04-14.242-1.163 1.163 4.577 4.568 9.829-9.827-1.166-1.153-8.663 8.664-3.414-3.415z" transform="translate(10556.001 9479.999)" style="fill:#30c469"/>
</svg>
