<svg xmlns="http://www.w3.org/2000/svg" width="30" height="30" viewBox="0 0 30 30">
    <defs>
        <style>
            .prefix__cls-1{fill:#17d0c3}
        </style>
    </defs>
    <g id="prefix__contract" transform="translate(0 -.001)">
        <path id="prefix__Path_1481" d="M26.862.22a1.188 1.188 0 0 0-.612-.2H8.4l2.5 2.5h10.788a4.315 4.315 0 0 0-.438 1.88v21.221a1.875 1.875 0 1 1-3.75 0v-3.078a1.254 1.254 0 0 0-1.25-1.251H5v-7.921l-2.5-2.5v10.421H1.25A1.254 1.254 0 0 0 0 22.543v3.7A3.763 3.763 0 0 0 3.75 30h15.625a4.4 4.4 0 0 0 4.375-4.379V7.528h5A1.254 1.254 0 0 0 30 6.276V4.4A4.369 4.369 0 0 0 26.862.22z" class="prefix__cls-1" data-name="Path 1481"/>
        <path id="prefix__Path_1482" d="M12.25 13a.733.733 0 0 1-.147-.015l-3.5-.7a.741.741 0 0 1-.383-.2L.51 4.373a1.743 1.743 0 0 1 0-2.462l1.4-1.4a1.741 1.741 0 0 1 2.461 0l7.707 7.708a.745.745 0 0 1 .2.383l.7 3.5a.749.749 0 0 1-.735.9z" class="prefix__cls-1" data-name="Path 1482"/>
    </g>
</svg>
