<svg xmlns="http://www.w3.org/2000/svg" width="34.758" height="36" viewBox="0 0 34.758 36">
    <defs>
        <style>
            .prefix__cls-1{fill:#487ff1}
        </style>
    </defs>
    <g id="prefix__doctor" transform="translate(-8.007)">
        <g id="prefix__Group_456" data-name="Group 456" transform="translate(16.85 13.721)">
            <g id="prefix__Group_455" data-name="Group 455">
                <path id="prefix__Path_364" d="M124.533 181.511a3.545 3.545 0 0 0 1.343-.608c1.256-.909 1.814-2.4 1.244-3.334-.619-1.015-2.314-.947-3.616.208a4.068 4.068 0 0 0-1.511 3.379 4.565 4.565 0 0 0 1.9 3.617 9.384 9.384 0 0 1 2.728-1.437l.014-.005a3.659 3.659 0 0 1-2.102-1.82zm-.2-2.871a.621.621 0 1 1 .621.631.624.624 0 0 1-.622-.631z" class="prefix__cls-1" data-name="Path 364" transform="translate(-121.993 -176.855)"/>
            </g>
        </g>
        <g id="prefix__Group_458" data-name="Group 458" transform="translate(18.567 13.721)">
            <g id="prefix__Group_457" data-name="Group 457">
                <path id="prefix__Path_365" d="M159.5 181.156a4.08 4.08 0 0 0-1.514-3.38c-1.3-1.154-3-1.225-3.616-.208-.569.933-.012 2.426 1.244 3.334a3.548 3.548 0 0 0 1.343.608 2.836 2.836 0 0 1-1.336 1.431c-.981.586-1.512.658-7.791 2.743-2.324.789-3.706 2.358-3.706 4.2a3.856 3.856 0 0 0 1.6 3.06 7.783 7.783 0 0 1 2.168-1.543c-.982-.5-1.285-.873-1.285-1.517 0-1.063 2.125-1.671 3.106-1.995v2.691l2.483-1.107v-1.583c.982.325 3.1.932 3.1 1.994 0 1.765-5.055 2.807-7.206 4.29a3.279 3.279 0 0 0-1.605 2.725 2.335 2.335 0 0 0 1.162 2.155.36.36 0 0 0 .538-.461c-.72-1.441.045-2.161 1.529-2.784v2.083a1.241 1.241 0 0 0 2.483 0v-2.082c1.426.6 2.324 1.444 1.526 2.783a.36.36 0 0 0 .536.461 2.356 2.356 0 0 0 1.138-2.139 3.411 3.411 0 0 0-1.6-2.732c2.113-.763 3.982-2.048 3.982-4.3a4.323 4.323 0 0 0-2.692-3.775 8.68 8.68 0 0 0 1.73-.8 4.807 4.807 0 0 0 2.683-4.152zm-2.962-1.887a.631.631 0 1 1 .621-.631.625.625 0 0 1-.625.631z" class="prefix__cls-1" data-name="Path 365" transform="translate(-144.119 -176.854)"/>
            </g>
        </g>
        <g id="prefix__Group_460" data-name="Group 460" transform="translate(22.903)">
            <g id="prefix__Group_459" data-name="Group 459">
                <path id="prefix__Path_366" d="M219.868 2.485h-8.5a5.47 5.47 0 0 0-4 1.814c-1.17 1.17-1.778 3.77-3.64 3.77V4.621a2.483 2.483 0 1 0-2.483 0v14.794l2.483-.795V12.4a2.76 2.76 0 0 0 1.24-1.248 2.545 2.545 0 0 0 2.168 1.261 2.472 2.472 0 0 0 2.153-1.269 4.154 4.154 0 0 0 5.611.028l-2.109-2.11.968.4a3.724 3.724 0 0 0 4.866-2.015l-3-1.241c2.908.003 4.243-1.819 4.243-3.721z" class="prefix__cls-1" data-name="Path 366" transform="translate(-200.007)"/>
            </g>
        </g>
        <g id="prefix__Group_462" data-name="Group 462" transform="translate(8.007 2.485)">
            <g id="prefix__Group_461" data-name="Group 461">
                <path id="prefix__Path_367" d="M20.5 33.845a5.47 5.47 0 0 0-4-1.814H8c0 1.9 1.335 3.724 4.238 3.724L9.248 37a3.724 3.724 0 0 0 4.866 2.015l.968-.4-2.109 2.11a4.154 4.154 0 0 0 5.611-.028 2.472 2.472 0 0 0 2.153 1.269h.027a2.27 2.27 0 0 0 2.14-2.322v-2.5c-.978-.805-1.538-2.437-2.404-3.299z" class="prefix__cls-1" data-name="Path 367" transform="translate(-8.007 -32.031)"/>
            </g>
        </g>
    </g>
</svg>
