<svg xmlns="http://www.w3.org/2000/svg" id="prefix__ic-exit-to-app-24px" width="22" height="22" viewBox="0 0 22 22">
    <path id="prefix__Path_443" fill="none" d="M0 0h22v22H0z" data-name="Path 443"/>
    <path id="prefix__Path_444" fill="#2d333f" d="M9.5 14.541l1.292 1.292 4.583-4.583-4.583-4.583L9.5 7.959l2.365 2.374H3v1.833h8.864zM17.667 3H4.833A1.833 1.833 0 0 0 3 4.833V8.5h1.833V4.833h12.834v12.834H4.833V14H3v3.667A1.833 1.833 0 0 0 4.833 19.5h12.834a1.839 1.839 0 0 0 1.833-1.833V4.833A1.839 1.839 0 0 0 17.667 3z" data-name="Path 444" transform="translate(-.25 -.25)"/>
</svg>
