<svg xmlns="http://www.w3.org/2000/svg" id="prefix__facebook-logo" width="10.86" height="20.087" viewBox="0 0 10.86 20.087">
    <g id="prefix__Path_567" fill="#487ff1" stroke="none" data-name="Path 567">
        <path d="M28.932 19.887h-3.417c-.115 0-.21-.094-.21-.21v-8.533h-2.818c-.116 0-.21-.094-.21-.21V7.633c0-.115.094-.21.21-.21H25.306V4.944c0-1.42.433-2.616 1.254-3.458C27.38.645 28.543.2 29.923.2l2.605.004c.115 0 .209.094.209.21V3.48c0 .116-.094.21-.21.21h-1.754c-1.358 0-1.631.613-1.631 1.6v2.133H32.405c.055 0 .11.022.148.061.04.04.062.093.062.148l-.001 3.303c0 .115-.094.21-.21.21h-3.262v8.532c0 .116-.094.21-.21.21z" transform="translate(-22.077)"/>
        <path d="M29.923.4c-1.326 0-2.439.424-3.22 1.225-.783.804-1.197 1.951-1.197 3.318V7.623h-3.02c-.005 0-.009.004-.009.01v3.302c0 .005.004.01.01.01h3.019V19.676c0 .006.004.01.01.01h3.416c.006 0 .01-.004.01-.01v-8.733H32.404c.006 0 .01-.004.01-.01l.001-3.302c0-.002-.001-.005-.003-.007l-.007-.002h-3.463V5.29c0-.935.222-1.8 1.83-1.8l1.756-.001c.005 0 .009-.005.009-.01V.414c0-.006-.004-.01-.01-.01L29.923.4m0-.4l2.605.004c.226 0 .409.184.409.41V3.48c0 .226-.183.41-.41.41h-1.754c-1.21 0-1.431.472-1.431 1.4v1.933h3.063c.109 0 .213.043.29.12.077.077.12.18.12.29l-.001 3.302c0 .226-.184.41-.41.41h-3.062v8.332c0 .226-.183.41-.41.41h-3.417c-.226 0-.41-.183-.41-.41v-8.333h-2.618c-.227 0-.41-.183-.41-.41V7.633c0-.226.183-.41.41-.41h2.619V4.944C25.106 1.94 26.996 0 29.923 0z" transform="translate(-22.077)"/>
    </g>
</svg>
