<?xml version="1.0" standalone="no"?>
<!DOCTYPE svg PUBLIC "-//W3C//DTD SVG 20010904//EN"
 "http://www.w3.org/TR/2001/REC-SVG-20010904/DTD/svg10.dtd">
<svg version="1.0" xmlns="http://www.w3.org/2000/svg"
 width="1280.000000pt" height="1104.000000pt" viewBox="0 0 1280.000000 1104.000000"
 preserveAspectRatio="xMidYMid meet">
<g transform="translate(0.000000,1104.000000) scale(0.100000,-0.100000)"
fill="#000000" stroke="none">
<path d="M9640 11014 c-24 -14 -55 -35 -69 -47 -60 -55 -437 -516 -804 -984
-259 -329 -319 -392 -398 -418 -93 -31 -148 -20 -290 62 -260 149 -454 228
-721 293 -280 69 -539 98 -933 107 -676 14 -1396 -62 -2340 -247 -175 -35
-225 -41 -301 -38 -79 3 -100 8 -155 36 -35 18 -103 67 -150 110 -569 507
-814 709 -938 770 -98 48 -176 51 -261 7 -113 -57 -318 -285 -497 -551 -447
-665 -984 -1596 -1403 -2433 -206 -412 -380 -818 -380 -886 0 -9 11 -37 24
-63 29 -58 81 -96 204 -152 116 -52 168 -82 476 -270 444 -272 529 -316 728
-386 189 -66 218 -80 244 -119 33 -51 154 -563 154 -653 0 -75 -34 -128 -234
-364 -238 -281 -297 -360 -356 -481 -62 -129 -80 -201 -80 -319 0 -163 48
-275 165 -387 126 -119 254 -166 439 -159 123 5 189 24 284 80 57 35 291 279
966 1008 304 328 341 372 377 445 119 241 24 535 -224 696 -100 65 -172 84
-317 84 -191 0 -286 -37 -499 -194 -75 -55 -128 -88 -133 -83 -19 19 -168 729
-168 799 0 24 8 64 18 90 10 27 179 333 376 681 440 780 719 1284 906 1637
172 325 214 392 293 468 67 64 184 128 282 152 107 26 1001 165 1327 205 581
72 1056 86 1483 45 221 -21 525 -54 553 -60 27 -7 31 -51 5 -59 -41 -12 -674
-97 -868 -116 -328 -33 -495 -74 -679 -166 -114 -58 -182 -106 -316 -225 -58
-51 -202 -170 -320 -265 -366 -293 -435 -378 -435 -539 1 -98 23 -150 103
-236 106 -115 344 -247 529 -295 135 -35 296 -42 432 -20 123 21 182 40 370
117 218 91 266 104 531 149 429 72 1081 163 1170 163 155 1 94 47 1067 -801
1839 -1604 2329 -2038 2378 -2106 82 -115 111 -218 93 -334 -18 -118 -118
-279 -232 -375 -66 -54 -224 -161 -293 -196 -106 -54 -205 -48 -312 17 -33 20
-199 159 -368 308 -402 354 -882 766 -958 822 -103 76 -151 96 -226 96 -53 0
-78 -6 -125 -30 -81 -40 -107 -80 -102 -156 5 -66 40 -126 135 -228 32 -35
346 -307 699 -605 352 -298 654 -559 672 -581 43 -52 62 -114 62 -200 0 -206
-96 -433 -280 -659 -69 -85 -145 -157 -191 -181 -21 -11 -56 -18 -90 -18 -102
-1 -134 21 -980 700 -434 347 -795 634 -804 638 -9 3 -56 6 -103 6 -158 -1
-207 -45 -207 -190 0 -91 19 -132 97 -206 101 -98 907 -742 1283 -1026 99 -74
204 -161 233 -192 120 -127 148 -276 98 -511 -35 -162 -78 -248 -170 -341
-134 -134 -302 -182 -485 -139 -99 24 -183 75 -342 208 -81 67 -317 263 -525
434 -794 652 -819 669 -1004 728 -94 29 -134 28 -183 -7 -44 -31 -67 -91 -67
-173 0 -133 -40 -96 865 -822 440 -353 814 -658 832 -677 60 -65 55 -158 -18
-304 -46 -95 -137 -198 -235 -268 -89 -64 -279 -152 -365 -170 -87 -18 -165
-9 -240 29 -26 12 -320 218 -654 457 -609 436 -1005 738 -1005 767 0 8 60 81
133 161 205 224 220 242 281 322 102 131 136 224 136 365 0 161 -60 307 -174
421 -174 174 -443 211 -668 92 -76 -41 -127 -91 -293 -293 -185 -226 -366
-437 -690 -805 -147 -168 -283 -328 -300 -355 -71 -111 -84 -236 -36 -371 119
-342 480 -507 797 -364 111 50 167 99 403 357 l103 113 29 -15 c16 -9 214
-154 441 -323 676 -504 1107 -817 1221 -886 74 -44 201 -90 320 -116 101 -22
148 -25 210 -11 23 5 71 15 107 22 144 27 346 120 482 222 103 77 237 220 304
322 63 98 100 175 139 295 32 97 64 146 109 165 17 7 72 18 122 24 224 25 373
94 536 249 91 87 164 190 223 315 69 146 89 229 136 550 11 77 38 138 71 162
13 9 64 39 113 67 389 219 624 588 711 1113 20 124 43 178 84 204 18 10 77 33
132 51 345 109 577 303 723 604 129 265 169 569 101 770 -50 148 -126 242
-285 356 -85 60 -178 135 -235 190 -19 18 -18 20 32 87 220 297 345 616 437
1113 29 159 40 196 75 265 49 97 72 125 405 480 485 519 544 586 576 651 16
34 29 70 29 79 0 9 -14 44 -32 77 -30 56 -121 137 -1437 1272 -772 666 -1425
1226 -1450 1245 -56 41 -143 81 -174 80 -12 0 -42 -12 -67 -25z m175 -603 c41
-19 472 -364 850 -680 263 -219 430 -366 920 -806 215 -193 447 -399 517 -458
70 -59 130 -112 133 -117 3 -5 -90 -114 -207 -242 -419 -457 -530 -573 -550
-573 -25 0 -2477 2024 -2478 2046 0 15 102 140 487 597 209 246 214 252 251
252 20 0 55 -9 77 -19z m-7126 -408 c225 -212 274 -257 453 -414 121 -107 124
-160 17 -324 -32 -50 -406 -725 -833 -1500 -426 -776 -780 -1411 -788 -1413
-13 -3 -965 545 -1000 575 -16 14 -2 45 183 415 490 979 864 1642 1284 2278
176 266 421 610 434 610 5 0 117 -102 250 -227z"/>
<path d="M3701 4839 c-81 -16 -169 -50 -228 -88 -88 -57 -719 -732 -1016
-1086 -202 -242 -346 -457 -386 -578 -122 -368 90 -728 471 -803 l83 -16 104
48 104 48 386 436 c915 1033 1064 1206 1106 1285 36 69 39 84 43 168 5 116 -8
183 -57 285 -45 92 -133 191 -213 239 -101 61 -269 87 -397 62z"/>
<path d="M4645 3934 c-38 -7 -108 -32 -154 -55 -112 -55 -199 -143 -656 -659
-197 -223 -391 -441 -430 -485 -120 -136 -305 -354 -354 -418 -184 -244 -172
-555 29 -771 223 -237 515 -256 773 -50 33 27 251 271 511 573 965 1123 975
1135 1004 1261 62 266 -129 545 -415 605 -84 18 -215 18 -308 -1z"/>
</g>
</svg>
