<svg xmlns="http://www.w3.org/2000/svg" width="22" height="17.413" viewBox="0 0 22 17.413">
    <defs>
        <style>
            .prefix__cls-1{fill:#487ff1}
        </style>
    </defs>
    <g id="prefix__heart" transform="translate(0 -53.38)">
        <g id="prefix__Group_1642" data-name="Group 1642" transform="translate(0 53.38)">
            <g id="prefix__Group_1641" data-name="Group 1641">
                <path id="prefix__Path_1505" d="M18.1 56.092a5.262 5.262 0 0 0-4.613-2.712 6.093 6.093 0 0 0-3.3.955l-.72.451-.718-.45a6.1 6.1 0 0 0-3.3-.956 5.262 5.262 0 0 0-4.604 2.712 5.686 5.686 0 0 0-.081 5.83 15.859 15.859 0 0 0 3.243 3.765c.21.2.409.385.607.575.741.712 1.492 1.4 2.218 2.062s1.465 1.339 2.2 2.041l.446.429.446-.429c.626-.6 1.262-1.187 1.885-1.757l-.314-.3-.156-.147q-.231-.218-.467-.447a9.719 9.719 0 0 1-1.793-2.232 5.039 5.039 0 0 1-.632-2.435 4.955 4.955 0 0 1 2.6-4.265 4.49 4.49 0 0 1 2.026-.482h.027a5.077 5.077 0 0 1 2.708.792l.053.034.052-.033a5.145 5.145 0 0 1 1.691-.687 4.909 4.909 0 0 1 .638-.091c.126-.01.253-.015.38-.015h.037c.078 0 .156 0 .234.007a5.65 5.65 0 0 0-.793-2.215z" class="prefix__cls-1" data-name="Path 1505" transform="translate(0 -53.38)"/>
            </g>
        </g>
        <g id="prefix__Group_1644" data-name="Group 1644" transform="translate(9.731 59.593)">
            <g id="prefix__Group_1643" data-name="Group 1643">
                <path id="prefix__Path_1506" d="M238.217 199.638a3.217 3.217 0 0 0-2.566-1.66c-.089-.007-.177-.01-.262-.011h-.027a3.577 3.577 0 0 0-.36.018 3.712 3.712 0 0 0-.669.129l-.024.007-.126.04-.064.022c-.063.022-.125.046-.186.072l-.062.026q-.061.026-.121.055a3.943 3.943 0 0 0-.411.226l-.738.463-.738-.463a3.928 3.928 0 0 0-.411-.226c-.04-.019-.081-.038-.122-.055l-.061-.026c-.041-.017-.083-.034-.124-.049l-.126-.045-.127-.04a3.7 3.7 0 0 0-1.053-.154h-.027a3.212 3.212 0 0 0-2.827 1.671 3.517 3.517 0 0 0-.045 3.6 10.092 10.092 0 0 0 2.026 2.371c.192.181.383.36.568.537 1.023.982 2.044 1.869 3.067 2.851 1.023-.982 2.044-1.869 3.067-2.851a13.088 13.088 0 0 0 2.593-2.908 3.515 3.515 0 0 0-.044-3.6z" class="prefix__cls-1" data-name="Path 1506" transform="translate(-226.467 -197.967)"/>
            </g>
        </g>
    </g>
</svg>
