<svg xmlns="http://www.w3.org/2000/svg" width="29.999" height="30.001" viewBox="0 0 29.999 30.001">
  <defs>
    <style>
      .cls-1 {
        fill: #fff;
      }
    </style>
  </defs>
  <g id="Group_877" data-name="Group 877" transform="translate(-849 -308)">
    <path id="Subtraction_26" data-name="Subtraction 26" class="cls-1" d="M-3366-8532h-27a3,3,0,0,1-3-3v-27h30v30Zm-17.917-21a3.925,3.925,0,0,0-2.922,1.271,4.562,4.562,0,0,0-1.16,3.118,5.439,5.439,0,0,0,1.45,3.561,30.49,30.49,0,0,0,3.6,3.387l.022.02c.557.474,1.1.939,1.663,1.431a.852.852,0,0,0,.565.213.852.852,0,0,0,.565-.213c.568-.5,1.127-.973,1.576-1.354l.09-.076a30.85,30.85,0,0,0,3.627-3.406,5.436,5.436,0,0,0,1.448-3.561,4.562,4.562,0,0,0-1.158-3.118,3.926,3.926,0,0,0-2.922-1.271,3.677,3.677,0,0,0-2.3.793,4.718,4.718,0,0,0-.928.967,4.606,4.606,0,0,0-.928-.967A3.665,3.665,0,0,0-3383.918-8553Z" transform="translate(4245 8870)"/>
  </g>
</svg>
