<svg xmlns="http://www.w3.org/2000/svg" width="14.612" height="13" viewBox="0 0 14.612 13">
<path id="prefix__heart" fill="#ffffff" d="M13.453 1.272A3.929 3.929 0 0 0 10.53 0a3.676 3.676 0 0 0-2.3.793 4.7 4.7 0 0 0-.928.969 4.7 4.7 0 0 0-.924-.969A3.675 3.675 0 0 0 4.082 0a3.929 3.929 0 0 0-2.923 1.272A4.567 4.567 0 0 0 0 4.391a5.439 5.439 0 0 0 1.449 3.56 30.9 30.9 0 0 0 3.628 3.405c.5.428 1.072.914 1.664 1.431a.858.858 0 0 0 1.13 0c.592-.517 1.162-1 1.665-1.432a30.888 30.888 0 0 0 3.628-3.4 5.438 5.438 0 0 0 1.449-3.56 4.567 4.567 0 0 0-1.16-3.123zm0 0"/>
</svg>
