<svg xmlns="http://www.w3.org/2000/svg" width="22" height="22" viewBox="0 0 22 22">
    <g id="prefix__Group_1070" fill="#487ff1" data-name="Group 1070" transform="translate(-35 -166)">
        <path id="prefix__home" d="M15.57 6.96L9.041.432a1.473 1.473 0 0 0-2.083 0L.434 6.955l-.007.007a1.472 1.472 0 0 0 .98 2.51h.305v4.8A1.726 1.726 0 0 0 3.437 16h2.554a.469.469 0 0 0 .469-.469v-3.764a.787.787 0 0 1 .787-.787h1.506a.787.787 0 0 1 .787.787v3.766a.469.469 0 0 0 .469.469h2.554a1.726 1.726 0 0 0 1.724-1.724v-4.8h.241A1.473 1.473 0 0 0 15.57 6.96zm0 0" transform="translate(38 169)"/>
    </g>
</svg>
