<svg xmlns="http://www.w3.org/2000/svg" width="24.003" height="24" viewBox="0 0 24.003 24">
    <path fill="#487ff1" d="M9.454 5l.063 11.437A3.925 3.925 0 0 1 5.561 20.4a4.03 4.03 0 0 1-4-4L1.492 3.965a2.454 2.454 0 0 1 2.473-2.473 2.521 2.521 0 0 1 2.5 2.5l.057 10.443a.984.984 0 0 1-.989.989 1.011 1.011 0 0 1-1-1l-.051-9.448-1.492-.008.052 9.448a2.521 2.521 0 0 0 2.5 2.5 2.455 2.455 0 0 0 2.473-2.473L7.957 4a4.03 4.03 0 0 0-4-4A3.925 3.925 0 0 0 0 3.957l.069 12.432a5.54 5.54 0 0 0 5.5 5.5 5.4 5.4 0 0 0 5.44-5.44l-.063-11.437z" transform="translate(16.219 0.363) rotate(45)"/>
    <path fill="none" d="M0 0h23.744v24H0z"/>
</svg>
