<svg xmlns="http://www.w3.org/2000/svg" width="24" height="24" viewBox="0 0 24 24">
    <g opacity="0.5">
        <path fill="#2d333f" d="M8 20a2 2 0 1 0 2 2 1.991 1.991 0 0 0-2-2zM2 4v2h2l3.6 7.585-1.35 2.45A2.033 2.033 0 0 0 6 17a2 2 0 0 0 2 2h12v-2H8.425a.248.248 0 0 1-.25-.25.238.238 0 0 1 .03-.12L9.1 15h7.45a2.006 2.006 0 0 0 1.75-1.03l3.575-6.49A.967.967 0 0 0 22 7a1 1 0 0 0-1-1H6.215l-.95-2H2zm16 16a2 2 0 1 0 2 2 1.991 1.991 0 0 0-2-2z" transform="translate(-1 -2)"/>
        <path fill="none" d="M0 0h24v24H0z"/>
    </g>
</svg>
