<svg xmlns="http://www.w3.org/2000/svg" width="18.524" height="18.524" viewBox="0 0 18.524 18.524">
    <defs>
        <style>
            .prefix__cls-1{fill:#487ff1;stroke:#487ff1;stroke-width:.5px}
        </style>
    </defs>
    <g id="prefix__instagram-sketched" transform="translate(.247 .277)">
        <path id="prefix__Path_1155" d="M10.465 5.838a4.619 4.619 0 1 0 4.618 4.619 4.618 4.618 0 0 0-4.618-4.619zm0 7.616a3 3 0 1 1 3-3 3 3 0 0 1-3 3z" class="prefix__cls-1" data-name="Path 1155" transform="translate(-1.462 -1.459)"/>
        <path id="prefix__Path_1156" d="M12.711.057C11.055-.02 6.953-.016 5.3.057a5.379 5.379 0 0 0-3.781 1.456C-.212 3.244.009 5.576.009 9c0 3.5-.2 5.78 1.51 7.484 1.738 1.737 4.1 1.51 7.484 1.51 3.468 0 4.665 0 5.891-.472 1.667-.647 2.926-2.137 3.049-4.814.078-1.657.073-5.758 0-7.415C17.794 2.129 16.1.213 12.711.057zm2.621 15.279c-1.132 1.135-2.709 1.034-6.351 1.034-3.75 0-5.254.056-6.351-1.045-1.264-1.258-1.03-3.278-1.03-6.34 0-4.144-.425-7.128 3.734-7.341.95-.034 1.231-.044 3.637-.044L9 1.622c4 0 7.133-.419 7.321 3.74.043.949.052 1.234.052 3.635 0 3.707.07 5.219-1.045 6.34z" class="prefix__cls-1" data-name="Path 1156"/>
        <circle id="prefix__Ellipse_97" cx="1.079" cy="1.079" r="1.079" class="prefix__cls-1" data-name="Ellipse 97" transform="translate(12.725 3.117)"/>
    </g>
</svg>
