<svg xmlns="http://www.w3.org/2000/svg" width="29.741" height="36" viewBox="0 0 29.741 36">
    <defs>
        <style>
            .cls-1{fill:#30c469}
        </style>
    </defs>
    <g id="Insurance" transform="translate(-9 -4.2)">
        <path id="Path_1158" d="M26.526 31.7v3.233H30.4V31.7a1.293 1.293 0 0 1 1.3-1.3h3.233v-3.874H31.7a1.293 1.293 0 0 1-1.3-1.293V22h-3.874v3.233a1.293 1.293 0 0 1-1.293 1.293H22V30.4h3.233a1.293 1.293 0 0 1 1.293 1.3z" class="cls-1" transform="translate(-4.595 -6.292)"/>
        <path id="Path_1159" d="M25.991 11.375A28.771 28.771 0 0 1 15 15.354v9.162a13.5 13.5 0 0 0 7.5 12.141l3.491 1.743 3.486-1.746a13.5 13.5 0 0 0 7.5-12.138v-9.161a28.791 28.791 0 0 1-10.991-3.98zm7.758 15.274a1.293 1.293 0 0 1-1.293 1.293h-3.232v3.233a1.293 1.293 0 0 1-1.293 1.293h-3.88a1.293 1.293 0 0 1-1.293-1.293v-3.233h-3.232a1.293 1.293 0 0 1-1.293-1.293V22.77a1.293 1.293 0 0 1 1.293-1.293h3.233v-3.233a1.293 1.293 0 0 1 1.293-1.293h3.879a1.293 1.293 0 0 1 1.293 1.293v3.233h3.233a1.293 1.293 0 0 1 1.293 1.293z" class="cls-1" transform="translate(-2.121 -2.536)"/>
        <path id="Path_1160" d="M25.08 5.008L23.87 4.2l-1.186.794A25.136 25.136 0 0 1 9 9.243V21.98a17.361 17.361 0 0 0 9.649 15.61l5.221 2.61 5.221-2.611A17.361 17.361 0 0 0 38.74 21.98V9.243a25.136 25.136 0 0 1-13.66-4.235zM36.154 21.98a14.79 14.79 0 0 1-8.22 13.3l-4.064 2.029-4.064-2.032a14.79 14.79 0 0 1-8.22-13.3v-10.3l.566-.07a27.542 27.542 0 0 0 11.374-4.08l.344-.219.345.219a27.542 27.542 0 0 0 11.371 4.082l.566.071z" class="cls-1"/>
    </g>
</svg>
