<svg xmlns="http://www.w3.org/2000/svg" width="24.295" height="30" viewBox="0 0 24.295 30">
    <path id="prefix__notepad" fill="#fa6770" d="M41.557 6.224v-1.5a.492.492 0 0 1 .492-.492H51.3a.492.492 0 0 1 .492.492v1.5a.492.492 0 0 1-.492.492h-9.251a.492.492 0 0 1-.492-.492zm17.263 1.6v23.3a3.109 3.109 0 0 1-3.105 3.105H37.63a3.109 3.109 0 0 1-3.105-3.105V7.825A3.109 3.109 0 0 1 37.63 4.72h1.618v1.5a2.8 2.8 0 0 0 2.8 2.8H51.3a2.8 2.8 0 0 0 2.8-2.8v-1.5h1.618a3.109 3.109 0 0 1 3.102 3.105zM42.787 21.393a1.155 1.155 0 0 0-1.589.377l-1.092 1.771-.564-.444a1.155 1.155 0 0 0-1.429 1.815l1.582 1.246a1.155 1.155 0 0 0 1.7-.3l1.772-2.874a1.155 1.155 0 0 0-.38-1.591zm0-8.315a1.155 1.155 0 0 0-1.589.377l-1.092 1.771-.564-.444a1.155 1.155 0 0 0-1.429 1.818l1.582 1.246a1.155 1.155 0 0 0 1.7-.3l1.772-2.874a1.155 1.155 0 0 0-.38-1.594zm11.96 12.172a1.155 1.155 0 0 0-1.155-1.15h-7.544a1.155 1.155 0 1 0 0 2.31h7.545a1.155 1.155 0 0 0 1.154-1.16zm0-8.315a1.155 1.155 0 0 0-1.155-1.155h-7.544a1.155 1.155 0 1 0 0 2.31h7.545a1.155 1.155 0 0 0 1.154-1.155z" transform="translate(-34.525 -4.232)"/>
</svg>
