<svg xmlns="http://www.w3.org/2000/svg" width="13.233" height="22" viewBox="0 0 13.233 22">
    <path id="prefix__Path_1157" fill="#487ff1" d="M277.538 256.969a5.568 5.568 0 1 0-5.568-5.568 5.568 5.568 0 0 0 5.568 5.568zm0-8.307a2.739 2.739 0 1 1-2.738 2.738 2.739 2.739 0 0 1 2.738-2.738zm6.418 8.987c-.314-.631-1.185-1.157-2.342-.245a7.357 7.357 0 0 1-8.152 0c-1.157-.912-2.028-.386-2.342.245-.548 1.1.071 1.633 1.468 2.53a9.347 9.347 0 0 0 3.893 1.159l-.884.884-3.281 3.281a1.277 1.277 0 0 0 0 1.806l.15.15a1.277 1.277 0 0 0 1.806 0l3.281-3.281 3.281 3.281a1.277 1.277 0 0 0 1.805 0l.151-.15a1.277 1.277 0 0 0 0-1.806l-3.281-3.281-.887-.887a9.314 9.314 0 0 0 3.866-1.157c1.397-.897 2.012-1.429 1.468-2.53z" data-name="Path 1157" transform="translate(-270.921 -245.833)"/>
</svg>
