<svg xmlns="http://www.w3.org/2000/svg" width="14" height="20" viewBox="0 0 14 20">
    <defs>
        <style>
            .prefix__cls-1{fill:#ed7255}
        </style>
    </defs>
    <g id="prefix__person" transform="translate(-4.77)">
        <g id="prefix__Group_1593" data-name="Group 1593" transform="translate(4.77)">
            <path id="prefix__Path_1479" d="M15.48 7.345a3.323 3.323 0 0 0-2.055.718 1.341 1.341 0 0 1-.5-.64 3.843 3.843 0 0 0 2.554-3.58A3.906 3.906 0 0 0 11.511 0a3.906 3.906 0 0 0-3.967 3.842 3.844 3.844 0 0 0 2.5 3.565c-.711 1.256-5.274 1.47-5.274 4.335a9.252 9.252 0 0 0 1.63 4.949 2.715 2.715 0 0 0 .427 2.164A3.149 3.149 0 0 0 9.46 20a5.843 5.843 0 0 0 1.271-.155 4.677 4.677 0 0 0 .779.072c3.546 0 6.446-4.145 6.715-7.653a3.074 3.074 0 0 0 .544-1.734 3.243 3.243 0 0 0-3.289-3.185zm.052 5.549c.863 1.252-.176 3.461-2.358 4.971-2.206 1.526-4.739 1.755-5.657.512s.128-3.489 2.334-5.016a6.712 6.712 0 0 1 3.78-1.3 2.3 2.3 0 0 1-.593-1.528 2.442 2.442 0 1 1 2.493 2.361z" class="prefix__cls-1" data-name="Path 1479" transform="translate(-4.77)"/>
            <path id="prefix__Path_1480" d="M14.781 20.891s-.259-1.385-1.072-.985-.259 2 .85 3c1.922-.9 2.7-1.969 1.992-2.569s-1.77.554-1.77.554z" class="prefix__cls-1" data-name="Path 1480" transform="translate(-7.36 -6.443)"/>
        </g>
    </g>
</svg>
