<svg xmlns="http://www.w3.org/2000/svg" width="20" height="20" viewBox="0 0 20 20">
    <g id="prefix__Group_1542" data-name="Group 1542" transform="translate(-1054 -2042)">
        <path id="prefix__Path_1" fill="none" d="M0 0h20v20H0z" data-name="Path 1" transform="translate(1054 2042)"/>
        <path id="prefix__Path_2" fill="#487ff1" d="M5.816 9.059a11.782 11.782 0 0 0 5.126 5.126l1.711-1.711a.773.773 0 0 1 .793-.187 8.872 8.872 0 0 0 2.777.443.78.78 0 0 1 .778.778v2.714a.78.78 0 0 1-.778.778A13.221 13.221 0 0 1 3 3.778.78.78 0 0 1 3.778 3H6.5a.78.78 0 0 1 .778.778 8.836 8.836 0 0 0 .443 2.777.781.781 0 0 1-.194.793z" data-name="Path 2" transform="translate(1054 2042)"/>
    </g>
</svg>
