<svg xmlns="http://www.w3.org/2000/svg" width="18" height="18" viewBox="0 0 18 18">
    <path d="M16.343 6.778h-.382a7.269 7.269 0 0 0-.468-1.128l.271-.271a1.657 1.657 0 0 0 0-2.344l-.8-.8a1.657 1.657 0 0 0-2.344 0l-.271.271a7.274 7.274 0 0 0-1.128-.468v-.381A1.659 1.659 0 0 0 9.565 0h-1.13a1.659 1.659 0 0 0-1.657 1.657v.382a7.267 7.267 0 0 0-1.128.468l-.271-.271a1.657 1.657 0 0 0-2.344 0l-.8.8a1.657 1.657 0 0 0 0 2.344l.271.271a7.267 7.267 0 0 0-.468 1.128h-.381A1.659 1.659 0 0 0 0 8.435v1.13a1.659 1.659 0 0 0 1.657 1.657h.382a7.269 7.269 0 0 0 .468 1.128l-.271.271a1.657 1.657 0 0 0 0 2.344l.8.8a1.657 1.657 0 0 0 2.344 0l.271-.271a7.274 7.274 0 0 0 1.128.468v.382A1.659 1.659 0 0 0 8.435 18h1.13a1.659 1.659 0 0 0 1.657-1.657v-.382a7.267 7.267 0 0 0 1.128-.468l.271.271a1.657 1.657 0 0 0 2.344 0l.8-.8a1.657 1.657 0 0 0 0-2.344l-.271-.271a7.267 7.267 0 0 0 .468-1.128h.382A1.659 1.659 0 0 0 18 9.565v-1.13a1.659 1.659 0 0 0-1.657-1.657zM9 12.916A3.916 3.916 0 1 1 12.916 9 3.921 3.921 0 0 1 9 12.916z"/>
</svg>
