<svg xmlns="http://www.w3.org/2000/svg" id="Component_36_2" width="37" height="37" viewBox="0 0 37 37">
    <defs>
        <style>
            .cls-3{fill:#2d333f}
        </style>
    </defs>
    <path id="Rectangle_2047" fill="#fff" d="M0 0H37V37H0z"/>
    <g id="share" opacity="0.5" transform="translate(10 10)">
        <path id="Path_1177" d="M319.4 18.437A2.365 2.365 0 1 1 317.032 16a2.4 2.4 0 0 1 2.368 2.437zm0 0" class="cls-3" transform="translate(-303.941 -15.438)"/>
        <path id="Path_1178" d="M301.577 6a2.959 2.959 0 0 1-2.909-3 2.91 2.91 0 1 1 5.818 0 2.959 2.959 0 0 1-2.909 3zm0-4.875A1.849 1.849 0 0 0 299.759 3a1.819 1.819 0 1 0 3.641 0 1.849 1.849 0 0 0-1.823-1.875zm0 0" class="cls-3" transform="translate(-288.486)"/>
        <path id="Path_1179" d="M319.4 359.77a2.365 2.365 0 1 1-2.364-2.438 2.4 2.4 0 0 1 2.364 2.438zm0 0" class="cls-3" transform="translate(-303.941 -344.77)"/>
        <path id="Path_1180" d="M301.577 347.332a3 3 0 1 1 2.909-3 2.959 2.959 0 0 1-2.909 3zm0-4.875a1.876 1.876 0 1 0 1.818 1.875 1.849 1.849 0 0 0-1.818-1.875zm0 0" class="cls-3" transform="translate(-288.486 -329.332)"/>
        <path id="Path_1181" d="M20.727 189.105a2.365 2.365 0 1 1-2.364-2.437 2.4 2.4 0 0 1 2.364 2.437zm0 0" class="cls-3" transform="translate(-15.455 -180.105)"/>
        <path id="Path_1182" d="M2.909 176.668a3 3 0 0 1 0-6 3 3 0 0 1 0 6zm0-4.875a1.876 1.876 0 0 0 0 3.75 1.876 1.876 0 0 0 0-3.75zm0 0" class="cls-3" transform="translate(0 -164.668)"/>
        <path id="Path_1183" d="M115.077 95.683a.722.722 0 0 1-.633-.379.764.764 0 0 1 .272-1.023l6.748-3.967a.714.714 0 0 1 .992.28.764.764 0 0 1-.272 1.023l-6.748 3.967a.706.706 0 0 1-.359.099zm0 0" class="cls-3" transform="translate(-110.45 -87.043)"/>
        <path id="Path_1184" d="M121.846 271.687a.706.706 0 0 1-.359-.1l-6.748-3.967a.764.764 0 0 1-.272-1.023.714.714 0 0 1 .992-.28l6.748 3.967a.764.764 0 0 1 .272 1.023.724.724 0 0 1-.633.38zm0 0" class="cls-3" transform="translate(-110.472 -256.86)"/>
    </g>
</svg>
