<svg xmlns="http://www.w3.org/2000/svg" id="prefix__ic-shopping-cart-24px" width="20" height="20" viewBox="0 0 20 20">
    <path id="prefix__Path_368" fill="#fff" d="M6 15.333A1.667 1.667 0 1 0 7.667 17 1.664 1.664 0 0 0 6 15.333zM1 2v1.667h1.667l3 6.325-1.125 2.041a1.611 1.611 0 0 0-.208.8A1.672 1.672 0 0 0 6 14.5h10v-1.667H6.35a.206.206 0 0 1-.208-.208l.025-.1.75-1.358h6.208a1.659 1.659 0 0 0 1.458-.858L17.567 4.9a.814.814 0 0 0 .1-.4.836.836 0 0 0-.833-.833H4.508L3.725 2H1zm13.333 13.333A1.667 1.667 0 1 0 16 17a1.664 1.664 0 0 0-1.667-1.667z" data-name="Path 368" transform="translate(-.167 -.333)"/>
    <path id="prefix__Path_369" fill="none" d="M0 0h20v20H0z" data-name="Path 369"/>
</svg>
