<svg xmlns="http://www.w3.org/2000/svg" width="31.305" height="30" viewBox="0 0 31.305 30">
    <path id="prefix__shapes-and-symbols" fill="#dd71e3" d="M31.223 11.831a1.662 1.662 0 0 0-1.431-1.143l-9.037-.82-3.571-8.361a1.664 1.664 0 0 0-3.062 0l-3.571 8.361-9.038.82A1.666 1.666 0 0 0 .567 13.6L7.4 19.59l-2.016 8.871a1.664 1.664 0 0 0 2.476 1.8l7.792-4.661 7.791 4.659a1.665 1.665 0 0 0 2.477-1.8l-2.013-8.869 6.831-5.99a1.666 1.666 0 0 0 .485-1.769zM15.8 25.511" transform="translate(0 -.496)"/>
</svg>
