<svg xmlns="http://www.w3.org/2000/svg" width="18.734" height="22" viewBox="0 0 18.734 22">
    <defs>
        <style>
            .prefix__cls-1{fill:#487ff1}
        </style>
    </defs>
    <g id="prefix__surface1" transform="translate(0 .001)">
        <path id="prefix__Path_1507" d="M124.633 158.457a4.192 4.192 0 1 0 4.192 4.192 4.2 4.2 0 0 0-4.192-4.192zm2.489 3.4l-3 3a.645.645 0 0 1-.913 0l-1.148-1.148a.645.645 0 1 1 .913-.913l.691.691 2.547-2.547a.645.645 0 0 1 .913.913zm0 0" class="prefix__cls-1" data-name="Path 1507" transform="translate(-115.266 -151.649)"/>
        <path id="prefix__Path_1508" d="M18.713 5.968v-.017c-.01-.211-.016-.435-.02-.684a2.332 2.332 0 0 0-2.2-2.284 9.048 9.048 0 0 1-6.158-2.6l-.011-.009a1.408 1.408 0 0 0-1.913 0L8.4.388a9.049 9.049 0 0 1-6.158 2.6 2.332 2.332 0 0 0-2.2 2.284c0 .247-.01.471-.02.683v.04c-.049 2.579-.11 5.789.964 8.7a11.078 11.078 0 0 0 2.658 4.14 13.9 13.9 0 0 0 5.2 3.076 1.608 1.608 0 0 0 .213.058 1.575 1.575 0 0 0 .619 0 1.61 1.61 0 0 0 .214-.058 13.912 13.912 0 0 0 5.2-3.078 11.1 11.1 0 0 0 2.658-4.141c1.074-2.924 1.014-6.14.965-8.724zM9.367 16.482A5.483 5.483 0 1 1 14.85 11a5.489 5.489 0 0 1-5.483 5.482zm0 0" class="prefix__cls-1" data-name="Path 1508"/>
    </g>
</svg>
