<svg xmlns="http://www.w3.org/2000/svg" id="prefix__vk-social-network-logo" width="20.087" height="11.46" viewBox="0 0 20.087 11.46">
    <path id="prefix__Path_566" fill="#487ff1" d="M19.98 128.1a1.375 1.375 0 0 0-.068-.131 10.411 10.411 0 0 0-2-2.312l-.021-.021-.01-.01-.011-.011h-.011q-.669-.638-.847-.858a.805.805 0 0 1-.147-.847 7.9 7.9 0 0 1 .941-1.37q.429-.554.68-.889 1.809-2.406 1.569-3.075l-.062-.1a.612.612 0 0 0-.324-.173 1.647 1.647 0 0 0-.67-.026l-3.012.021a.391.391 0 0 0-.209.005l-.136.031-.052.026-.042.031a.465.465 0 0 0-.115.11.718.718 0 0 0-.1.183 17.077 17.077 0 0 1-1.119 2.353q-.387.649-.711 1.124a5.41 5.41 0 0 1-.544.7 3.793 3.793 0 0 1-.4.361q-.178.136-.272.115l-.178-.042a.7.7 0 0 1-.235-.256 1.147 1.147 0 0 1-.12-.408q-.031-.246-.037-.424t.005-.5q.011-.324.011-.439 0-.4.016-.863t.026-.737q.011-.272.01-.575a2.417 2.417 0 0 0-.037-.476 1.628 1.628 0 0 0-.11-.335.564.564 0 0 0-.214-.251 1.209 1.209 0 0 0-.35-.141 6.959 6.959 0 0 0-1.412-.136 6.861 6.861 0 0 0-2.5.251 1.409 1.409 0 0 0-.4.314q-.188.23-.052.251a1.282 1.282 0 0 1 .889.45l.063.126a2 2 0 0 1 .146.481 4.853 4.853 0 0 1 .094.763 8.141 8.141 0 0 1 0 1.307q-.052.544-.1.847a1.7 1.7 0 0 1-.141.492 2.073 2.073 0 0 1-.126.23.18.18 0 0 1-.052.052.783.783 0 0 1-.282.052.663.663 0 0 1-.356-.147 2.508 2.508 0 0 1-.434-.4 5.382 5.382 0 0 1-.507-.716q-.282-.46-.586-1.088l-.167-.3q-.157-.293-.429-.852t-.481-1.083A.689.689 0 0 0 4 118.44l-.052-.031a.716.716 0 0 0-.167-.089 1.109 1.109 0 0 0-.241-.068l-2.866.021a.728.728 0 0 0-.6.2l-.042.063A.338.338 0 0 0 0 118.7a.833.833 0 0 0 .063.282q.627 1.475 1.365 2.845t1.281 2.207q.544.837 1.109 1.579t.748.952q.183.209.288.314l.262.251a6.206 6.206 0 0 0 .737.6 12.584 12.584 0 0 0 1.077.691 5.845 5.845 0 0 0 1.375.554 4.756 4.756 0 0 0 1.527.173h1.2a.833.833 0 0 0 .554-.23l.042-.052a.693.693 0 0 0 .078-.193 1.062 1.062 0 0 0 .037-.288 3.446 3.446 0 0 1 .068-.81 2.131 2.131 0 0 1 .178-.544 1.337 1.337 0 0 1 .225-.308.909.909 0 0 1 .178-.152.684.684 0 0 1 .083-.037.664.664 0 0 1 .591.162 3.472 3.472 0 0 1 .638.607q.3.361.716.81a4.922 4.922 0 0 0 .732.669l.209.126a2.548 2.548 0 0 0 .544.23 1.173 1.173 0 0 0 .586.052l2.677-.042a1.213 1.213 0 0 0 .617-.131.518.518 0 0 0 .262-.288.81.81 0 0 0 .005-.356 1.312 1.312 0 0 0-.072-.273z" data-name="Path 566" transform="translate(0 -117.748)"/>
</svg>
