<svg xmlns="http://www.w3.org/2000/svg" width="166.563" height="166.563" viewBox="0 0 166.563 166.563">
    <defs>
        <style>
            .prefix__cls-1{fill:#fafafa}
        </style>
    </defs>
    <g id="prefix__contract" transform="translate(0 -.001)">
        <path id="prefix__Path_1481" d="M149.143 1.132a6.6 6.6 0 0 0-3.4-1.112H46.638l13.88 13.895h59.893a23.957 23.957 0 0 0-2.429 10.421v117.825a10.41 10.41 0 1 1-20.82 0v-17.09a6.964 6.964 0 0 0-6.94-6.947H27.761V74.147L13.88 60.253v57.871H6.94A6.964 6.964 0 0 0 0 125.071v20.564a20.892 20.892 0 0 0 20.82 20.842h86.752a24.419 24.419 0 0 0 24.29-24.315V41.7h27.761a6.964 6.964 0 0 0 6.94-6.947V24.335a24.255 24.255 0 0 0-17.42-23.2z" class="prefix__cls-1" data-name="Path 1481" transform="translate(0 .088)"/>
        <path id="prefix__Path_1482" d="M68.008 72.174a4.072 4.072 0 0 1-.816-.083L47.743 68.2a4.113 4.113 0 0 1-2.126-1.138L2.826 24.276a9.679 9.679 0 0 1 0-13.669L10.6 2.828a9.668 9.668 0 0 1 13.664 0l42.79 42.8A4.134 4.134 0 0 1 68.2 47.75l3.889 19.45a4.157 4.157 0 0 1-4.081 4.975z" class="prefix__cls-1" data-name="Path 1482" transform="translate(.005)"/>
    </g>
</svg>
