<svg xmlns="http://www.w3.org/2000/svg" width="159.116" height="196.478" viewBox="0 0 159.116 196.478">
    <path id="prefix__notepad" fill="#fafafa" d="M80.582 17.28V7.452a3.224 3.224 0 0 1 3.22-3.22h60.56a3.224 3.224 0 0 1 3.22 3.22v9.828a3.224 3.224 0 0 1-3.22 3.22H83.8a3.223 3.223 0 0 1-3.218-3.22zm113.059 10.483v152.61A20.36 20.36 0 0 1 173.3 200.71H54.862a20.36 20.36 0 0 1-20.337-20.337V27.763A20.36 20.36 0 0 1 54.862 7.426h10.595v9.854A18.368 18.368 0 0 0 83.8 35.627h60.56a18.367 18.367 0 0 0 18.349-18.347V7.452v-.026H173.3a20.361 20.361 0 0 1 20.341 20.337zm-105 88.859a7.564 7.564 0 0 0-10.407 2.47l-7.152 11.6-3.692-2.908a7.563 7.563 0 0 0-9.358 11.884l10.358 8.157a7.564 7.564 0 0 0 11.11-1.973l11.6-18.824a7.563 7.563 0 0 0-2.464-10.406zm0-54.456a7.564 7.564 0 0 0-10.407 2.47l-7.152 11.6-3.692-2.908a7.563 7.563 0 0 0-9.358 11.884l10.352 8.158A7.564 7.564 0 0 0 79.5 91.4l11.6-18.823a7.564 7.564 0 0 0-2.464-10.411zm78.33 79.718a7.562 7.562 0 0 0-7.563-7.563H109.99a7.563 7.563 0 1 0 0 15.127h49.41a7.562 7.562 0 0 0 7.566-7.564zm0-54.456a7.562 7.562 0 0 0-7.563-7.563H109.99a7.563 7.563 0 0 0 0 15.127h49.41a7.562 7.562 0 0 0 7.566-7.564z" transform="translate(-34.525 -4.232)"/>
</svg>
